# xmcd
#
# Track frame offsets:
# 150
# 17061
# 36998
#
# Disc length: 739 seconds
#
#
# Revision: 0
# Processed by: cddbd v1.5.2PL0 Copyright (c) Steve Scherf et al.
# Submitted via: FreeRIP 2.951 
#
DISCID=1d02e103
DTITLE=Al Bano and Romina Power - Na Na Na
DYEAR=1900
DGENRE=
TTITLE0=Na Na Na
TTITLE1=Everybody Loves
TTITLE2=Na Na Na
EXTD=
EXTT0=
EXTT1=
EXTT2=
PLAYORDER=
